<?xml version="1.0"?>
<svg xmlns="http://www.w3.org/2000/svg" width="1024" height="1024" viewBox="0 0 1024 1024"><rect width="1024" height="1024" rx="230" fill="#2D2925"></rect><g transform="translate(325.42 272.00) scale(0.9459)"><path d="M195.45 0.2L213.45 0L232.45 0.89L251.45 2.87L270.45 5.9L287.45 9.65L303.45 14.27L318.42 19.85L331.2 25.99L341.55 32.39L350.96 40.06L358.18 48.11L363.22 56.09L365.34 60.75L366.94 65.53L368.48 74.29L368.58 79.19L368.14 84.07L366 92.66L363.17 99.01L359.97 104.09L355.42 109.44L350.91 113.39L345.95 116.68L339.7 119.59L334.07 121.27L327.3 122.29L318.41 122.29L309.44 121.08L300.45 119.06L275.45 112.11L262.45 108.96L246.45 106.02L230.45 104.1L213.45 103.21L197.45 103.65L183.46 105.4L170.57 108.59L159.99 112.84L154.49 115.86L150.16 118.77L146.14 122.04L142.49 125.65L137.14 132.9L134.97 137.25L133.71 140.86L132.75 145.45L132.49 149.16L132.71 152.86L133.62 157.41L134.86 160.95L137 165.21L142.35 172.21L149.22 178.2L157.13 183.11L167.61 187.79L176.48 190.79L188.45 194.06L258.45 209.73L274.45 213.76L287.45 217.54L302.45 222.74L316.44 228.67L328.41 234.82L340.23 242.18L352.59 251.66L363.12 261.72L372.34 272.75L380.45 285.36L386.49 298.26L390.64 311.25L393.44 326.25L394.51 341.25L393.96 357.25L391.65 373.25L387.68 388.25L382.19 402.24L374.76 416.16L366.01 428.84L355.58 440.93L342.9 452.77L329.34 462.97L315.44 471.43L300.45 478.76L283.45 485.29L265.45 490.53L246.45 494.51L227.45 497.13L206.45 498.65L186.45 499L165.45 498.39L146.45 496.95L126.45 494.51L106.45 491.09L87.45 486.85L69.45 481.82L53.47 476.32L40.63 470.79L30.13 465.04L21.24 458.73L14.15 452.11L8.26 444.66L3.85 436.55L1.08 427.99L0 419.19L0.46 411.32L2.56 402.58L6.28 394.2L10.86 387.31L17.27 380.53L23.87 375.66L31.08 372.07L38.69 369.85L43.57 369.16L49.49 368.96L55.46 369.39L62.45 370.55L73.45 373.39L99.45 381.7L112.45 385.45L126.45 388.86L141.45 391.76L154.45 393.65L167.45 394.96L180.45 395.68L192.45 395.81L206.45 395.19L218.43 393.76L228.35 391.64L238.04 388.38L246.28 384.26L253.69 378.92L259.18 373.2L263.26 366.71L265.44 360.59L266.18 354.27L265.44 347.96L263.26 341.86L259.77 336.17L254.44 330.33L248.02 325.32L240.85 321.16L229.33 316.28L214.44 311.78L137.45 294.54L121.45 290.49L108.45 286.64L93.45 281.26L80.46 275.53L68.53 269.1L57.76 262.09L47.4 253.93L38.6 245.58L30.67 236.53L23.81 226.99L18.12 217.18L13.18 206.23L9.51 195.25L6.95 184.25L5.58 175.25L4.79 166.25L4.55 157.25L4.85 148.25L5.7 139.25L6.93 131.25L8.88 122.25L11.16 114.25L14 106.25L17.43 98.25L21.49 90.28L25.58 83.33L30.9 75.49L36.08 68.75L47.79 55.93L54.17 49.99L61.77 43.67L76.49 33.33L84.46 28.61L93.45 23.9L111.45 16.13L130.45 9.93L150.45 5.25L171.45 2.05L194.45 0.25Z" fill="#FBF8F4"></path></g><circle cx="734" cy="358" r="112" fill="#C2956F"></circle><polyline points="688,358 722,393 782,322" fill="none" stroke="#2D2925" stroke-width="34" stroke-linecap="round" stroke-linejoin="round"></polyline></svg>